<svg width="59" height="57" fill="none" xmlns="http://www.w3.org/2000/svg"><path d="M35.538 35.025C24.63 38.2 15.606 42.832 9.958 48.258l-.25.24a29.202 29.202 0 004.93 3.658l.382-.454a71.31 71.31 0 014.918-5.253c4.622-4.463 9.91-8.327 15.606-11.43l-.006.006zM.79 30.321c.434 5.662 2.603 10.853 6.007 15.075l.157-.15c3.497-3.344 8.049-6.385 13.54-9.034 4.814-2.324 10.34-4.317 16.297-5.89H.788zM22.988 7.053c9.76 9.425 22.043 15.658 35.515 18.021C56.879 11.102 44.608.232 29.698.232c-3.938 0-7.69.762-11.117 2.134a69.968 69.968 0 004.407 4.687zM9.958 8.207c5.648 5.432 14.672 10.057 25.58 13.238-5.695-3.108-10.984-6.966-15.606-11.43a71.542 71.542 0 01-4.917-5.252l-.383-.454a28.923 28.923 0 00-4.924 3.657l.25.24zM22.988 49.412a67.098 67.098 0 00-4.407 4.687 29.829 29.829 0 0011.117 2.133c14.91 0 27.18-10.87 28.81-24.847-13.471 2.363-25.754 8.596-35.514 18.021l-.006.006zM20.495 20.252c-5.492-2.648-10.045-5.69-13.541-9.032l-.157-.152C3.393 15.291 1.224 20.482.789 26.144h35.996c-5.956-1.574-11.477-3.568-16.296-5.897l.006.005z" fill="#F5F5F5"/></svg>