<svg xmlns="http://www.w3.org/2000/svg" width="29" height="41" viewBox="0 0 29 40"><path d="M0 3.078v24.676c0 .46.105.918.309 1.332.203.414.5.781.867 1.07l11.855 9.336a2.376 2.376 0 002.938 0l11.855-9.336c.367-.289.664-.656.867-1.07.204-.414.309-.871.309-1.332V3.078a3.05 3.05 0 00-.918-2.176A3.169 3.169 0 0025.863 0H3.137C2.305 0 1.507.324.918.902A3.05 3.05 0 000 3.078zm0 0" fill-rule="evenodd" fill="#004de5"/><path d="M22.898 14.219v-5.39c0-.716-.285-1.4-.789-1.907a2.688 2.688 0 00-1.898-.79H8.785c-.71 0-1.394.286-1.898.79a2.707 2.707 0 00-.79 1.906v15.645a2.702 2.702 0 001.008 2.101l4.16 3.352a.35.35 0 00.356.043.334.334 0 00.191-.309V18.602c0-.09.036-.176.098-.239a.337.337 0 01.238-.097h3.024a2.013 2.013 0 012.015 2.02v9.374c0 .067.02.13.055.18a.334.334 0 00.492.086l4.16-3.352c.313-.25.567-.57.743-.933.175-.368.265-.766.265-1.168v-4.86a2.7 2.7 0 00-.789-1.906 2.672 2.672 0 00-1.898-.789 2.709 2.709 0 001.898-.793c.5-.504.785-1.191.785-1.906zm-7.73 1.351h-3.023a.348.348 0 01-.239-.101.337.337 0 01-.097-.239V9.164c0-.086.035-.172.097-.234a.331.331 0 01.239-.102h4.703c.09 0 .175.035.238.102a.335.335 0 01.098.234v4.383a2.022 2.022 0 01-2.016 2.023zm0 0" fill="#fff"/></svg>